<svg id="Layer_1" data-name="Layer 1" xmlns="http://www.w3.org/2000/svg" viewBox="0 0 162.63 30.73">
  <defs>
    <style>
      .cls-1 {
        fill: #808184;
      }

      .cls-2 {
        fill: #fff;
      }

      .cls-3 {
        fill: #1b75bb;
      }
    </style>
  </defs>
  <title>elements_white</title>
  <rect class="cls-1" width="28.35" height="5.67" rx="2.83"/>
  <g>
    <path class="cls-2" d="M42.78,27.51a1.06,1.06,0,0,1-.62-.19.67.67,0,0,1-.28-.59V6.33a.62.62,0,0,1,.28-.55,1.07,1.07,0,0,1,.62-.2H53.46a.64.64,0,0,1,.57.29,1.07,1.07,0,0,1,.18.58,1.19,1.19,0,0,1-.2.68.62.62,0,0,1-.55.28h-9.6v8.25h4.71a.63.63,0,0,1,.55.27,1.05,1.05,0,0,1,.2.63,1,1,0,0,1-.18.54.65.65,0,0,1-.57.27H43.86v8.31h9.6A.63.63,0,0,1,54,26a1.1,1.1,0,0,1,.2.66,1.15,1.15,0,0,1-.18.62.63.63,0,0,1-.57.28Z" transform="translate(-1.4 -1.4)"/>
    <path class="cls-2" d="M58,27.51a1.06,1.06,0,0,1-.62-.19.67.67,0,0,1-.29-.59V6.3a.57.57,0,0,1,.31-.55,1.36,1.36,0,0,1,.69-.17,1.45,1.45,0,0,1,.67.17.57.57,0,0,1,.31.55V25.68h8.56a.53.53,0,0,1,.5.29,1.29,1.29,0,0,1,.16.61,1.39,1.39,0,0,1-.16.65.52.52,0,0,1-.5.28Z" transform="translate(-1.4 -1.4)"/>
    <path class="cls-2" d="M71.88,27.51a1.06,1.06,0,0,1-.62-.19.67.67,0,0,1-.29-.59V6.33a.63.63,0,0,1,.29-.55,1.07,1.07,0,0,1,.62-.2H82.55a.66.66,0,0,1,.58.29,1.14,1.14,0,0,1,.17.58,1.18,1.18,0,0,1-.19.68.64.64,0,0,1-.56.28H73v8.25h4.72a.65.65,0,0,1,.55.27,1.05,1.05,0,0,1,.2.63.91.91,0,0,1-.19.54.63.63,0,0,1-.56.27H73v8.31h9.6a.65.65,0,0,1,.56.27,1.09,1.09,0,0,1,.19.66,1.23,1.23,0,0,1-.17.62.65.65,0,0,1-.58.28Z" transform="translate(-1.4 -1.4)"/>
    <path class="cls-2" d="M87.2,27.51a1.23,1.23,0,0,1-.69-.19.66.66,0,0,1-.3-.59V6.54a.85.85,0,0,1,.3-.75,1.17,1.17,0,0,1,.69-.21,1.14,1.14,0,0,1,.65.2,2.28,2.28,0,0,1,.52.51,4.19,4.19,0,0,1,.42.67l5.16,10L99.11,7c.14-.24.29-.46.44-.67a1.94,1.94,0,0,1,.52-.51,1.14,1.14,0,0,1,.63-.2,1.17,1.17,0,0,1,.71.21.87.87,0,0,1,.28.75V26.73a.67.67,0,0,1-.29.59,1.29,1.29,0,0,1-.7.19,1.24,1.24,0,0,1-.67-.19.66.66,0,0,1-.32-.59V9.87l-5,9.42a1.52,1.52,0,0,1-.38.48.77.77,0,0,1-.42.15.75.75,0,0,1-.4-.13,1.24,1.24,0,0,1-.39-.5l-5-9.51v17a.65.65,0,0,1-.31.59A1.27,1.27,0,0,1,87.2,27.51Z" transform="translate(-1.4 -1.4)"/>
    <path class="cls-2" d="M107.15,27.51a1,1,0,0,1-.61-.19.67.67,0,0,1-.29-.59V6.33a.63.63,0,0,1,.29-.55,1.06,1.06,0,0,1,.61-.2h10.68a.63.63,0,0,1,.57.29,1.07,1.07,0,0,1,.18.58,1.18,1.18,0,0,1-.19.68.64.64,0,0,1-.56.28h-9.6v8.25h4.71a.64.64,0,0,1,.56.27,1,1,0,0,1,.19.63,1,1,0,0,1-.17.54.65.65,0,0,1-.58.27h-4.71v8.31h9.6a.65.65,0,0,1,.56.27,1.09,1.09,0,0,1,.19.66,1.15,1.15,0,0,1-.18.62.62.62,0,0,1-.57.28Z" transform="translate(-1.4 -1.4)"/>
    <path class="cls-2" d="M122.48,27.51a1.23,1.23,0,0,1-.69-.19.66.66,0,0,1-.3-.59V6.33a.6.6,0,0,1,.3-.58,1.41,1.41,0,0,1,.69-.17,1,1,0,0,1,.63.2,2.6,2.6,0,0,1,.51.49A3.34,3.34,0,0,1,124,7l8.1,16V6.3a.57.57,0,0,1,.3-.55,1.41,1.41,0,0,1,.69-.17,1.46,1.46,0,0,1,.68.17.57.57,0,0,1,.31.55V26.73a.65.65,0,0,1-.31.59,1.27,1.27,0,0,1-.68.19,1,1,0,0,1-.75-.36,4.33,4.33,0,0,1-.57-.78l-8.34-16.23V26.73a.65.65,0,0,1-.31.59A1.27,1.27,0,0,1,122.48,27.51Z" transform="translate(-1.4 -1.4)"/>
    <path class="cls-2" d="M143.57,27.51a1.18,1.18,0,0,1-.68-.19.67.67,0,0,1-.31-.59V7.44h-5a.63.63,0,0,1-.55-.28,1.14,1.14,0,0,1-.2-.65,1.1,1.1,0,0,1,.2-.64.64.64,0,0,1,.55-.29h12a.67.67,0,0,1,.58.27,1.1,1.1,0,0,1,.17.63,1.25,1.25,0,0,1-.17.66.64.64,0,0,1-.58.3h-5V26.73a.65.65,0,0,1-.31.59A1.27,1.27,0,0,1,143.57,27.51Z" transform="translate(-1.4 -1.4)"/>
    <path class="cls-2" d="M157.7,27.72a8.43,8.43,0,0,1-3.3-.58,6.3,6.3,0,0,1-2.11-1.35,2.14,2.14,0,0,1-.74-1.31,1.16,1.16,0,0,1,.14-.51,1.23,1.23,0,0,1,.34-.43.69.69,0,0,1,.42-.17.87.87,0,0,1,.62.38,10.71,10.71,0,0,0,.84.87,4.73,4.73,0,0,0,1.39.87,5.84,5.84,0,0,0,2.28.37A5.74,5.74,0,0,0,160,25.4,3.32,3.32,0,0,0,161.53,24a4.58,4.58,0,0,0,.52-2.3,4.4,4.4,0,0,0-.54-2.32A4.34,4.34,0,0,0,160.09,18a11.31,11.31,0,0,0-1.94-1L156,16.19a9,9,0,0,1-1.95-1,4.71,4.71,0,0,1-1.44-1.62,5.29,5.29,0,0,1-.56-2.57,5.4,5.4,0,0,1,.6-2.7,4.65,4.65,0,0,1,1.55-1.65,6.5,6.5,0,0,1,2-.85,9.65,9.65,0,0,1,2.16-.26,11.52,11.52,0,0,1,1.73.14,10.57,10.57,0,0,1,1.63.37A4.48,4.48,0,0,1,163,6.6a.92.92,0,0,1,.46.75,1.24,1.24,0,0,1-.1.47,1.51,1.51,0,0,1-.29.45.62.62,0,0,1-.48.19,1.62,1.62,0,0,1-.75-.28,7.2,7.2,0,0,0-1.3-.57,6.72,6.72,0,0,0-2.15-.29,6.9,6.9,0,0,0-2.08.32A3.42,3.42,0,0,0,154.7,8.7a3.17,3.17,0,0,0-.63,2.1,3.15,3.15,0,0,0,.56,1.94,4.09,4.09,0,0,0,1.44,1.18,16.46,16.46,0,0,0,1.93.83c.7.25,1.41.53,2.12.84a8.7,8.7,0,0,1,1.95,1.17,5.08,5.08,0,0,1,1.42,1.84,6.89,6.89,0,0,1,.54,2.94,6.79,6.79,0,0,1-.81,3.5,5,5,0,0,1-2.23,2A7.76,7.76,0,0,1,157.7,27.72Z" transform="translate(-1.4 -1.4)"/>
  </g>
  <rect class="cls-1" y="25.06" width="28.35" height="5.67" rx="2.83"/>
  <g>
    <path class="cls-1" d="M15.59,16.77,18.41,14v0H4.23A2.84,2.84,0,0,0,1.4,16.77h0A2.83,2.83,0,0,0,4.23,19.6H18.41Z" transform="translate(-1.4 -1.4)"/>
    <rect class="cls-3" x="17.94" y="14.76" width="4.01" height="4.01" transform="translate(-7.42 17.61) rotate(-45)"/>
  </g>
</svg>
